<?xml version="1.0" encoding="UTF-8"?>
<svg version="1.1" xmlns="http://www.w3.org/2000/svg" width="400" height="400">
<path d="M0 0 C7.59 0 15.18 0 23 0 C23 7.26 23 14.52 23 22 C30.26 22 37.52 22 45 22 C45 28.93 45 35.86 45 43 C80.64 43 116.28 43 153 43 C153 36.07 153 29.14 153 22 C160.26 22 167.52 22 175 22 C175 14.74 175 7.48 175 0 C182.59 0 190.18 0 198 0 C198 7.26 198 14.52 198 22 C205.26 22 212.52 22 220 22 C220 29.26 220 36.52 220 44 C227.26 44 234.52 44 242 44 C242 116.6 242 189.2 242 264 C234.74 264 227.48 264 220 264 C220 271.26 220 278.52 220 286 C140.14 286 60.28 286 -22 286 C-22 278.74 -22 271.48 -22 264 C-29.26 264 -36.52 264 -44 264 C-44 191.4 -44 118.8 -44 44 C-36.74 44 -29.48 44 -22 44 C-22 36.74 -22 29.48 -22 22 C-14.74 22 -7.48 22 0 22 C0 14.74 0 7.48 0 0 Z " fill="#010101" transform="translate(101,57)"/>
<path d="M0 0 C79.86 0 159.72 0 242 0 C242 29.04 242 58.08 242 88 C162.14 88 82.28 88 0 88 C0 58.96 0 29.92 0 0 Z " fill="#FEFEFE" transform="translate(79,167)"/>
<path d="M0 0 C7.59 0 15.18 0 23 0 C23 7.26 23 14.52 23 22 C30.26 22 37.52 22 45 22 C45 28.93 45 35.86 45 43 C80.64 43 116.28 43 153 43 C153 36.07 153 29.14 153 22 C160.26 22 167.52 22 175 22 C175 14.74 175 7.48 175 0 C182.59 0 190.18 0 198 0 C198 7.26 198 14.52 198 22 C205.26 22 212.52 22 220 22 C220 29.26 220 36.52 220 44 C227.26 44 234.52 44 242 44 C242 51.26 242 58.52 242 66 C147.62 66 53.24 66 -44 66 C-44 58.74 -44 51.48 -44 44 C-36.74 44 -29.48 44 -22 44 C-22 36.74 -22 29.48 -22 22 C-14.74 22 -7.48 22 0 22 C0 14.74 0 7.48 0 0 Z " fill="#030303" transform="translate(101,57)"/>
<path d="M0 0 C94.38 0 188.76 0 286 0 C286 7.26 286 14.52 286 22 C191.62 22 97.24 22 0 22 C0 14.74 0 7.48 0 0 Z " fill="#FC0001" transform="translate(57,123)"/>
<path d="M0 0 C7.26 0 14.52 0 22 0 C22 14.52 22 29.04 22 44 C14.74 44 7.48 44 0 44 C0 29.48 0 14.96 0 0 Z " fill="#010101" transform="translate(233,189)"/>
<path d="M0 0 C7.26 0 14.52 0 22 0 C22 14.52 22 29.04 22 44 C14.74 44 7.48 44 0 44 C0 29.48 0 14.96 0 0 Z " fill="#010101" transform="translate(145,189)"/>
</svg>
